Coordinates
version=1
nRows=16
nColumns=36
inDegrees=yes

Units are S.I. units (second, meters, Newtons, ...)
If the header above contains a line with 'inDegrees', this indicates whether rotational values are in degrees (yes) or radians (no).

endheader
time	pelvis_tilt	pelvis_list	pelvis_rotation	pelvis_tx	pelvis_ty	pelvis_tz	hip_flexion_r	hip_adduction_r	hip_rotation_r	knee_angle_r	knee_angle_r_beta	ankle_angle_r	subtalar_angle_r	mtp_angle_r	hip_flexion_l	hip_adduction_l	hip_rotation_l	knee_angle_l	knee_angle_l_beta	ankle_angle_l	subtalar_angle_l	mtp_angle_l	lumbar_extension	lumbar_bending	lumbar_rotation	arm_flex_r	arm_add_r	arm_rot_r	elbow_flex_r	pro_sup_r	arm_flex_l	arm_add_l	arm_rot_l	elbow_flex_l	pro_sup_l
      0.34000000	      6.66722813	     -3.04415654	     -1.49481720	      0.26394173	      1.05885741	     -0.17494088	     -9.90459821	      8.83610987	      4.64974507	      1.77506861	      0.03098079	      8.28360470	      4.14756456	     -6.57009813	     20.58003906	     -2.26433284	     -0.59072315	     63.94746255	      1.11609377	     -0.60882131	    -23.08953261	     -6.57009813	    -10.59262073	      3.24825998	      1.37712591	      2.38335710	    -11.14451482	      4.79375857	     38.95695394	    103.21265633	    -12.07722459	     -7.52494913	      7.91625823	     36.24006566	     92.07765571
      0.35000000	      6.80829729	     -2.95687443	     -1.92013311	      0.27561114	      1.05887360	     -0.17443892	    -10.77836570	      8.65884167	      5.06490896	      1.85350991	      0.03234985	      9.01889201	      4.24398421	     -6.58567615	     20.92584166	     -2.16198301	     -0.77843514	     61.37758758	      1.07124099	     -0.17664892	    -23.02125733	     -6.58567615	    -10.83694173	      3.08101708	      1.96209551	      3.08245480	    -11.36229402	      4.97276133	     39.49089456	    103.30116281	    -12.68176099	     -7.28064646	      7.83058257	     35.87484160	     92.00667522
      0.36000000	      6.61610295	     -2.92816089	     -2.20250866	      0.28737078	      1.05825249	     -0.17417746	    -11.24659993	      8.56572729	      5.20316965	      1.97023123	      0.03438702	      9.38793444	      4.33428238	     -6.59427802	     21.60247735	     -2.09598684	     -0.82750451	     58.67062076	      1.02399551	      0.15709307	    -22.85854487	     -6.59427802	    -10.67731458	      3.02242408	      2.20640961	      3.79741852	    -11.42592316	      5.01673369	     40.06102620	    103.32467751	    -13.44715525	     -7.05088193	      7.86606773	     35.59069849	     91.94880608
      0.37000000	      6.47140200	     -2.92117193	     -2.43714679	      0.29918159	      1.05754727	     -0.17398637	    -11.78070355	      8.49616898	      5.35756431	      2.08395294	      0.03637184	      9.90589319	      4.42791832	     -6.60235694	     22.10438133	     -2.03463480	     -0.77849790	     55.69025235	      0.97197826	      0.32403088	    -22.53623647	     -6.60235694	    -10.56542778	      2.97977218	      2.46731994	      4.46720019	    -11.53617294	      5.07628447	     40.58913164	    103.34609200	    -14.15214919	     -6.83996505	      7.88943088	     35.33430799	     91.89031690
      0.38000000	      6.57290879	     -2.87826337	     -2.64444571	      0.31107082	      1.05701424	     -0.17384356	    -12.61907958	      8.36503033	      5.44971045	      2.14911251	      0.03750909	     10.74238094	      4.68583235	     -6.61768654	     22.16587976	     -1.95198618	     -0.78983710	     52.37310793	      0.91408317	      0.21864055	    -22.13607984	     -6.61768654	    -10.72482552	      2.89915679	      2.80246328	      5.14970633	    -11.68170896	      5.24877923	     41.06296994	    103.43943027	    -14.75308124	     -6.65198262	      7.87074510	     35.12048797	     91.83341785
      0.39000000	      6.46939673	     -2.86458626	     -2.77744848	      0.32300116	      1.05608557	     -0.17389207	    -13.18934523	      8.27382899	      5.41299571	      2.28473021	      0.03987606	     11.35137587	      5.10456608	     -6.63890158	     22.34823717	     -1.82736523	     -0.58978346	     48.81837236	      0.85204133	     -0.20036036	    -21.76813245	     -6.63890158	    -10.66371472	      2.86789997	      2.88645105	      5.84106816	    -11.76712224	      5.40170775	     41.55751016	    103.56310451	    -15.45055351	     -6.47235046	      7.90031667	     34.98138911	     91.78717599
      0.40000000	      6.23298671	     -2.86495188	     -2.84176273	      0.33506557	      1.05481236	     -0.17393582	    -13.63009893	      8.23686144	      5.35878654	      2.40923149	      0.04204902	     11.93788253	      5.19994454	     -6.65195851	     22.57893927	     -1.73971384	     -0.35519737	     45.05760075	      0.78640349	     -0.84048610	    -21.11629866	     -6.65195851	    -10.40951326	      2.86340240	      2.97078929	      6.41800584	    -11.83190217	      5.48656283	     42.03890090	    103.60548627	    -16.12585357	     -6.32465922	      7.95552636	     34.83794106	     91.74089709
      0.41000000	      6.13910803	     -2.85060805	     -2.88762238	      0.34715209	      1.05363156	     -0.17412984	    -14.19035260	      8.15033967	      5.07350136	      2.60314700	      0.04543349	     12.68346400	      5.92236925	     -6.70432724	     22.45055589	     -1.54187407	      0.06102317	     40.88168248	      0.71351996	     -2.79421416	    -21.58807864	     -6.70432724	    -10.33783477	      2.84107994	      2.95754417	      7.08126551	    -11.90067417	      5.70947574	     42.45674113	    103.90729327	    -16.78835180	     -6.17785526	      8.02396462	     34.78086810	     91.72814661
      0.42000000	      5.93142087	     -2.87891398	     -2.96211874	      0.35936467	      1.05216174	     -0.17413009	    -14.66702797	      8.14584729	      5.15715451	      2.74888978	      0.04797718	     13.24253602	      5.84077381	     -6.71758049	     22.35048977	     -1.53736108	      0.23912797	     36.61394009	      0.63903381	     -3.98271968	    -20.50814993	     -6.71758049	    -10.11699712	      2.85502491	      3.06315110	      7.58280277	    -11.94364588	      5.76114348	     42.93507207	    103.92094906	    -17.37836252	     -6.04906800	      8.09824922	     34.65108578	     91.69073495
      0.43000000	      5.52561716	     -3.01681245	     -3.01443385	      0.37153149	      1.05027253	     -0.17420734	    -14.87442488	      8.27349245	      5.33902857	      3.00850234	      0.05250827	     13.55792973	      5.84385000	     -6.72476391	     22.39655805	     -1.64075837	      0.54086392	     32.27543499	      0.56331261	     -5.29769788	    -19.22134581	     -6.72476391	     -9.70133640	      3.01076295	      3.06175557	      8.07123426	    -11.95996805	      5.80724287	     43.47024623	    103.91158209	    -18.00934143	     -5.89311425	      8.19311180	     34.57211470	     91.66178936
      0.44000000	      5.65771662	     -2.95181046	     -3.13012526	      0.38403299	      1.04909019	     -0.17435592	    -15.73721355	      8.09977910	      5.19451292	      3.13695222	      0.05475014	     14.34623642	      6.21907188	     -6.77427939	     21.51472438	     -1.43569065	      0.79846323	     27.31763882	      0.47678274	     -9.15868012	    -20.37271730	     -6.77427939	     -9.85522737	      2.90976397	      3.19703869	      8.57418881	    -12.02612692	      5.96544923	     43.90648958	    104.14328713	    -18.50743474	     -5.81614915	      8.38102142	     34.52057242	     91.73911015
      0.45000000	      5.51043919	     -3.04963888	     -3.29929163	      0.39655292	      1.04735776	     -0.17429347	    -16.24112347	      8.12907423	      5.40262628	      3.41938534	      0.05967953	     14.88361606	      6.17382772	     -6.79012092	     21.01853282	     -1.62144169	      0.51262863	     22.74880068	      0.39704147	    -10.84967571	    -18.72602235	     -6.79012092	     -9.69761674	      2.98141065	      3.35844065	      8.97988370	    -12.04203161	      6.05455228	     44.37446675	    104.18251794	    -19.00052061	     -5.69468352	      8.41476158	     34.40004556	     91.73834438
      0.46000000	      5.25272179	     -3.15660848	     -3.45667940	      0.40923586	      1.04540553	     -0.17438714	    -16.59180064	      8.16421735	      5.50868088	      3.76459063	      0.06570450	     15.36975463	      6.09567297	     -6.80079066	     20.61291211	     -1.78256103	      0.23822684	     18.33789161	      0.32005659	    -12.40367966	    -16.90366373	     -6.80079066	     -9.39615118	      3.08939923	      3.52291079	      9.31039149	    -12.10120634	      6.16075736	     44.82968676	    104.20374044	    -19.50625706	     -5.55769611	      8.44470908	     34.31972426	     91.74099266
      0.47000000	      5.19327702	     -3.23007361	     -3.69750003	      0.42202491	      1.04368466	     -0.17450527	    -17.13747239	      8.09892165	      5.68074324	      4.16967941	      0.07277463	     15.87376424	      6.23515234	     -6.81568881	     19.91817373	     -1.90283244	     -0.26908870	     14.07454513	      0.24564715	    -13.52494807	    -15.02585291	     -6.81568881	     -9.33676962	      3.14845220	      3.70238764	      9.66791563	    -12.13747638	      6.29472975	     45.33473231	    104.25889705	    -19.95872166	     -5.40523060	      8.46363288	     34.20949806	     91.78161271
      0.48000000	      5.09334048	     -3.26944274	     -3.92942720	      0.43497212	      1.04191767	     -0.17476887	    -17.58958309	      7.98480263	      5.75200792	      4.67318131	      0.08156240	     16.39708807	      6.40177844	     -6.83053793	     19.26372063	     -1.94243493	     -0.71493525	     10.14761625	      0.17710931	    -13.86276025	    -12.79147233	     -6.83053793	     -9.20663518	      3.17843233	      3.90333452	      9.93914070	    -12.18938253	      6.43239249	     45.80065244	    104.37573686	    -20.35919830	     -5.25580786	      8.44833156	     34.06418695	     91.87441746
      0.49000000	      4.98029920	     -3.28074874	     -4.17730304	      0.44807811	      1.04017096	     -0.17509904	    -17.95547604	      7.80150941	      5.52009385	      5.30029810	      0.09250765	     16.97149511	      7.06975596	     -6.87240995	     18.74910356	     -2.00433842	     -1.82765420	      6.87202913	      0.11993953	    -12.10106239	     -8.54934251	     -6.87240995	     -9.04945365	      3.18074599	      4.15637758	     10.12225948	    -12.25078851	      6.53731962	     46.23290697	    104.57876249	    -20.71311608	     -5.10876116	      8.40399206	     33.94814276	     92.20096288
